# xmcd CD database file
#
# Track frame offsets:
#	150
#	54014
#	114700
#	173447
#	203834
#	258734
#	319137
#
# Disc length: 4533 seconds
#
# Revision: 0
# Processed by: cddbd v1.5.2PL0 Copyright (c) Steve Scherf et al.
# Submitted via: CDex 1.70beta2
#
DISCID=5911b307
DTITLE=Fumio Itabashi - Watarase
DYEAR=2005
DGENRE=Jazz
TTITLE0=Watarase (Jambo! Obrigado! Brazil)
TTITLE1=Watarase (Over The Rainbow)
TTITLE2=Watarase (North Wind)
TTITLE3=Watarase (Smile)
TTITLE4=Watarase (Live at Lovely) feat. Minoru Wakasugi
TTITLE5=Symphonic Poem "Watarase" feat. Yuki Kaneko
TTITLE6=Watarase (Ichigetsusanshu)
EXTD=YEAR: 2005
EXTT0=
EXTT1=
EXTT2=
EXTT3=
EXTT4=
EXTT5=
EXTT6=
PLAYORDER=
